<svg width="16" height="16" viewBox="0 0 16 16" fill="none" xmlns="http://www.w3.org/2000/svg">
<path d="M12.8482 8L14.9955 5.85257C15.6427 5.20543 16 4.34371 16 3.42857C16 2.51343 15.6427 1.65171 14.9952 1.00457C14.3483 0.357142 13.4866 0 12.5712 0C11.656 0 10.7943 0.357142 10.1471 1.00457L7.99986 3.152L5.8523 1.00457C5.20509 0.357142 4.34367 0 3.42855 0C2.51343 0 1.65172 0.357142 1.00452 1.00457C0.357307 1.652 0 2.51343 0 3.42857C0 4.34371 0.357021 5.20543 1.00452 5.85257L3.15207 8L1.00452 10.1474C0.357021 10.7949 0 11.6563 0 12.5714C0 13.4866 0.357021 14.3483 1.00452 14.9954C1.65201 15.6426 2.51343 16 3.42855 16C4.34367 16 5.20509 15.6429 5.8523 14.9954L7.99986 12.848L10.1471 14.9954C10.7946 15.6429 11.656 16 12.5712 16C13.4866 16 14.3483 15.6429 14.9952 14.9954C15.6427 14.348 16 13.4866 16 12.5714C16 11.6563 15.6427 10.7946 14.9952 10.1474L12.8482 8ZM13.3792 13.3794C13.1561 13.6026 12.8636 13.7143 12.5712 13.7143C12.279 13.7143 11.9865 13.6026 11.7632 13.3794L7.99986 9.616L4.23656 13.3794C4.0135 13.6026 3.72074 13.7143 3.42855 13.7143C3.13636 13.7143 2.84361 13.6026 2.62054 13.3794C2.17412 12.9329 2.17412 12.2097 2.62054 11.7634L6.38383 8L2.62054 4.23657C2.17412 3.79 2.17412 3.06686 2.62054 2.62057C2.84389 2.39743 3.13636 2.28571 3.42855 2.28571C3.72074 2.28571 4.0135 2.39743 4.23656 2.62057L7.99986 6.384L11.7632 2.62057C11.9865 2.39743 12.279 2.28571 12.5712 2.28571C12.8636 2.28571 13.1561 2.39743 13.3792 2.62057C13.8256 3.06714 13.8256 3.79029 13.3792 4.23657L9.61588 8L13.3792 11.7634C13.8259 12.2097 13.8259 12.9331 13.3792 13.3794Z" fill="#F44336"/>
</svg>
