<?xml version="1.0" encoding="UTF-8"?>
<!DOCTYPE svg PUBLIC "-//W3C//DTD SVG 1.1//EN" "http://www.w3.org/Graphics/SVG/1.1/DTD/svg11.dtd">
<svg xmlns="http://www.w3.org/2000/svg" version="1.1" width="512px" height="512px" style="shape-rendering:geometricPrecision; text-rendering:geometricPrecision; image-rendering:optimizeQuality; fill-rule:evenodd; clip-rule:evenodd" xmlns:xlink="http://www.w3.org/1999/xlink">
<g><path style="opacity:0.967" fill="#000000" d="M 81.5,89.5 C 197.5,89.3333 313.5,89.5 429.5,90C 441.961,94.7032 445.461,103.203 440,115.5C 437.736,118.433 434.902,120.6 431.5,122C 314.167,122.667 196.833,122.667 79.5,122C 68.3087,116.361 65.4754,107.861 71,96.5C 73.9978,93.2623 77.4978,90.9289 81.5,89.5 Z"/></g>
<g><path style="opacity:0.995" fill="#000000" d="M 78.5,175.5 C 196.5,175.333 314.5,175.5 432.5,176C 443.158,182.611 445.324,191.444 439,202.5C 436.92,204.123 434.754,205.623 432.5,207C 314.5,207.667 196.5,207.667 78.5,207C 69.0886,201.657 66.2552,193.824 70,183.5C 72.1565,180.024 74.9898,177.357 78.5,175.5 Z"/></g>
<g><path style="opacity:0.957" fill="#000000" d="M 81.5,281.5 C 86.5483,281.127 91.215,282.294 95.5,285C 148.695,325.089 202.029,364.923 255.5,404.5C 308.971,364.923 362.305,325.089 415.5,285C 424.6,279.633 432.767,280.8 440,288.5C 444.598,298.136 442.765,306.302 434.5,313C 378.5,355 322.5,397 266.5,439C 259.167,443.667 251.833,443.667 244.5,439C 188.5,397 132.5,355 76.5,313C 66.7114,304.252 66.0447,294.919 74.5,285C 76.9252,283.787 79.2585,282.621 81.5,281.5 Z"/></g>
</svg>
