<svg width="128" height="128" viewBox="0 0 128 128" fill="none" xmlns="http://www.w3.org/2000/svg">
<g clip-path="url(#clip0_1_3)">
<path d="M8 112V16C8 11.586 11.594 8 16 8H96C100.414 8 104 11.586 104 16V63.031L112 55.031V16C112 7.164 104.836 0 96 0H16C7.164 0 0 7.164 0 16V112C0 120.836 7.164 128 16 128H60V120H16C11.594 120 8 116.414 8 112ZM88 24H24V32H88V24ZM88 40H24V48H88V40ZM88 56H24V64H88V56ZM24 80H56V72H24V80Z" fill="black"/>
<path fill-rule="evenodd" clip-rule="evenodd" d="M121.636 87.273C122.848 87.273 123.879 87.6971 124.727 88.5457C125.576 89.3938 126 90.424 126 91.6365V100.364C126 101.577 125.576 102.607 124.727 103.454C123.879 104.303 122.849 104.727 121.636 104.727H102.727V123.637C102.727 124.849 102.303 125.88 101.454 126.729C100.606 127.576 99.5757 128 98.363 128H89.6359C88.424 128 87.3936 127.576 86.5451 126.729C85.6965 125.88 85.2724 124.849 85.2724 123.637V104.727H66.3632C65.1515 104.727 64.1209 104.303 63.2724 103.454C62.4238 102.607 62 101.577 62 100.364V91.6365C62 90.424 62.424 89.3944 63.2725 88.5459C64.1211 87.6973 65.1517 87.2732 66.3634 87.2732H85.2725V68.3634C85.2725 67.1517 85.6966 66.1211 86.5452 65.2725C87.3938 64.424 88.4242 64 89.6361 64H98.3625C99.576 64 100.606 64.4244 101.454 65.2724C102.302 66.1209 102.727 67.1515 102.727 68.3632V87.273H121.636ZM92 72V93.5H69V99H92V117H97V99H117.5V93.5H97V72H92Z" fill="#77BB00"/>
</g>
<defs>
<clipPath id="clip0_1_3">
<rect width="128" height="128" fill="white"/>
</clipPath>
</defs>
</svg>
