<svg width="128" height="128" viewBox="0 0 128 128" fill="none" xmlns="http://www.w3.org/2000/svg">
<g clip-path="url(#clip0_1_11)">
<path d="M8.766 119.203C8.268 118.699 7.991 118.004 7.998 117.297C8.021 115.953 8.391 103.988 14.705 97.672C17.617 94.758 23.72 91.602 32.694 87.111C42.272 82.326 47.582 79.472 50.03 77.158L55.426 72.056L50.737 66.296C43.352 57.224 39.114 47.206 39.114 38.814C39.114 32.341 39.114 25.005 42.177 18.937C45.846 11.68 53.188 8 64.009 8C74.826 8 82.172 11.68 85.836 18.936C88.899 25.006 88.899 32.342 88.899 38.815C88.899 47.206 84.661 57.223 77.274 66.297L75.889 68H86.024C92.935 58.439 96.9 48.043 96.9 38.814C96.9 31.814 96.9 23.101 92.98 15.332C89.446 8.338 81.555 0 64.009 0C46.462 0 38.569 8.338 35.038 15.332C31.115 23.102 31.115 31.812 31.115 38.814C31.115 49.132 36.041 60.914 44.534 71.347C42.506 73.265 34.143 77.445 29.118 79.954C19.151 84.938 12.828 88.233 9.048 92.015C0.675998 100.386 0.0429973 114.437 0.00199733 117.171C-0.0430027 120.023 1.059 122.78 3.065 124.819C5.07 126.85 7.809 127.999 10.666 127.999H67.98V119.999H10.666C9.956 120 9.263 119.711 8.766 119.203ZM116.965 100L124.483 92.484C126.749 90.219 128 87.203 128 84C128 80.797 126.749 77.781 124.482 75.516C122.217 73.25 119.2 72 115.995 72C112.791 72 109.774 73.25 107.508 75.516L99.99 83.032L92.471 75.516C90.205 73.25 87.189 72 83.985 72C80.781 72 77.764 73.25 75.498 75.516C73.232 77.782 71.981 80.797 71.981 84C71.981 87.203 73.231 90.219 75.498 92.484L83.017 100L75.498 107.516C73.231 109.782 71.981 112.797 71.981 116C71.981 119.203 73.231 122.219 75.498 124.484C77.765 126.749 80.781 128 83.985 128C87.189 128 90.205 126.75 92.471 124.484L99.99 116.968L107.508 124.484C109.775 126.75 112.791 128 115.995 128C119.2 128 122.217 126.75 124.482 124.484C126.749 122.218 128 119.203 128 116C128 112.797 126.749 109.781 124.482 107.516L116.965 100ZM118.824 118.828C118.043 119.609 117.019 120 115.995 120C114.972 120 113.948 119.609 113.166 118.828L99.99 105.656L86.814 118.828C86.033 119.609 85.008 120 83.985 120C82.962 120 81.937 119.609 81.156 118.828C79.593 117.265 79.593 114.734 81.156 113.172L94.332 100L81.156 86.828C79.593 85.265 79.593 82.734 81.156 81.172C81.938 80.391 82.962 80 83.985 80C85.008 80 86.033 80.391 86.814 81.172L99.99 94.344L113.166 81.172C113.948 80.391 114.972 80 115.995 80C117.019 80 118.043 80.391 118.824 81.172C120.387 82.735 120.387 85.266 118.824 86.828L105.648 100L118.824 113.172C120.388 114.734 120.388 117.266 118.824 118.828Z" fill="black"/>
<path d="M116.984 100L124.502 92.484C126.768 90.219 128.019 87.203 128.019 84C128.019 80.797 126.768 77.781 124.501 75.516C122.236 73.25 119.219 72 116.014 72C112.81 72 109.793 73.25 107.527 75.516L100.009 83.032L92.49 75.516C90.224 73.25 87.208 72 84.004 72C80.8 72 77.783 73.25 75.517 75.516C73.251 77.782 72 80.797 72 84C72 87.203 73.25 90.219 75.517 92.484L83.036 100L75.517 107.516C73.25 109.782 72 112.797 72 116C72 119.203 73.25 122.219 75.517 124.484C77.784 126.749 80.8 128 84.004 128C87.208 128 90.224 126.75 92.49 124.484L100.009 116.968L107.527 124.484C109.794 126.75 112.81 128 116.014 128C119.219 128 122.236 126.75 124.501 124.484C126.768 122.218 128.019 119.203 128.019 116C128.019 112.797 126.768 109.781 124.501 107.516L116.984 100ZM118.843 118.828C118.062 119.609 117.038 120 116.014 120C114.991 120 113.967 119.609 113.185 118.828L100.009 105.656L86.833 118.828C86.052 119.609 85.027 120 84.004 120C82.981 120 81.956 119.609 81.175 118.828C79.612 117.265 79.612 114.734 81.175 113.172L94.351 100L81.175 86.828C79.612 85.265 79.612 82.734 81.175 81.172C81.957 80.391 82.981 80 84.004 80C85.027 80 86.052 80.391 86.833 81.172L100.009 94.344L113.185 81.172C113.967 80.391 114.991 80 116.014 80C117.038 80 118.062 80.391 118.843 81.172C120.406 82.735 120.406 85.266 118.843 86.828L105.667 100L118.843 113.172C120.407 114.734 120.407 117.266 118.843 118.828Z" fill="#F44336"/>
</g>
<defs>
<clipPath id="clip0_1_11">
<rect width="128" height="128" fill="white"/>
</clipPath>
</defs>
</svg>
