<svg width="128" height="128" viewBox="0 0 128 128" fill="none" xmlns="http://www.w3.org/2000/svg">
<g clip-path="url(#clip0_2_26)">
<path d="M8.766 119.203C8.268 118.699 7.991 118.004 7.998 117.297C8.021 115.953 8.391 103.988 14.705 97.672C17.618 94.758 23.718 91.602 32.691 87.111C42.267 82.326 47.577 79.472 50.024 77.158L55.42 72.056L50.732 66.296C43.348 57.224 39.111 47.206 39.111 38.814C39.111 32.341 39.111 25.005 42.174 18.937C45.84 11.68 53.181 8 64 8C74.816 8 82.161 11.68 85.824 18.936C88.887 25.006 88.887 32.342 88.887 38.815C88.887 47.206 84.65 57.223 77.263 66.297L72.575 72.059L77.975 77.163C79.436 78.544 81.954 80.132 85.773 82.202L91.684 76.292C88.069 74.394 84.663 72.478 83.47 71.349C91.961 60.915 96.886 49.132 96.886 38.816C96.886 31.816 96.886 23.103 92.968 15.334C89.435 8.338 81.544 0 64 0C46.454 0 38.563 8.338 35.033 15.332C31.11 23.102 31.11 31.812 31.11 38.814C31.11 49.132 36.035 60.914 44.527 71.347C42.499 73.265 34.138 77.445 29.114 79.954C19.149 84.938 12.827 88.233 9.048 92.015C0.676999 100.386 0.0439991 114.437 0.000999113 117.171C-0.0420009 120.023 1.06 122.78 3.066 124.819C5.07 126.85 7.807 127.999 10.665 127.999H55.969V119.999H10.665C9.958 120 9.263 119.711 8.766 119.203ZM121.224 94.758L115.477 100.504C118.845 105.82 119.935 113.207 119.998 117.293C120.01 118.004 119.732 118.699 119.236 119.203C118.728 119.719 118.052 120 117.333 120H95.977L87.976 128H117.332C120.192 128 122.928 126.852 124.932 124.82C126.936 122.781 128.042 120.023 127.999 117.168C127.96 114.715 127.393 103.16 121.224 94.758ZM125.639 83.313C128.765 80.188 128.765 75.122 125.639 72L119.982 66.344C118.419 64.781 116.372 64 114.325 64C112.277 64 110.23 64.781 108.668 66.344L74.315 100.688C72.754 102.251 67.974 108.293 67.972 110.34L63.971 128L81.63 124C81.63 124 89.726 119.219 91.288 117.656L125.639 83.313ZM84.533 117.527L74.168 107.164C75.231 105.707 76.414 104.242 77.143 103.516L103.01 77.657L114.324 88.97L88.468 114.82C88.015 115.25 86.447 116.309 84.533 117.527Z" fill="black"/>
<path d="M125.656 83.3092C128.781 80.1848 128.781 75.1198 125.656 71.9984L120 66.3435C118.437 64.7808 116.391 64 114.344 64C112.297 64 110.25 64.7808 108.688 66.3435L74.342 100.681C72.7813 102.244 68.0022 108.284 68.0002 110.331L64 127.988L81.6555 123.988C81.6555 123.988 89.75 119.208 91.3117 117.646L125.656 83.3092ZM84.558 117.517L74.195 107.156C75.2578 105.699 76.4406 104.234 77.1694 103.508L103.031 77.6543L114.343 88.9651L88.4922 114.81C88.0393 115.24 86.4716 116.299 84.558 117.517Z" fill="#499CD9"/>
<path d="M124.656 83.3092C127.781 80.1848 127.781 75.1198 124.656 71.9984L119 66.3435C117.437 64.7808 115.391 64 113.344 64C111.297 64 109.25 64.7808 107.688 66.3435L73.342 100.681C71.7813 102.244 67.0022 108.284 67.0002 110.331L63 127.988L80.6555 123.988C80.6555 123.988 88.75 119.208 90.3117 117.646L124.656 83.3092ZM83.558 117.517L73.195 107.156C74.2578 105.699 75.4406 104.234 76.1694 103.508L102.031 77.6543L113.343 88.9651L87.4922 114.81C87.0393 115.24 85.4716 116.299 83.558 117.517Z" fill="#499CD9"/>
</g>
<defs>
<clipPath id="clip0_2_26">
<rect width="128" height="128" fill="white"/>
</clipPath>
</defs>
</svg>
