<svg width="128" height="128" viewBox="0 0 128 128" fill="none" xmlns="http://www.w3.org/2000/svg">
<g clip-path="url(#clip0_1_3)">
<path d="M8 112V16C8 11.586 11.594 8 16 8H96C100.414 8 104 11.586 104 16V63.031L112 55.031V16C112 7.164 104.836 0 96 0H16C7.164 0 0 7.164 0 16V112C0 120.836 7.164 128 16 128H60V120H16C11.594 120 8 116.414 8 112ZM88 24H24V32H88V24ZM88 40H24V48H88V40ZM88 56H24V64H88V56ZM24 80H56V72H24V80Z" fill="black"/>
<path d="M108 125C108 125 109.365 123.559 110 122.5C111.5 120 112 118.5 112 115V107L104 108.5V116L101.5 119L95 120V128L104.5 127L108 125Z" fill="black"/>
<path fill-rule="evenodd" clip-rule="evenodd" d="M111 64.5L109.5 65.5L104.5 70.5L96.5 78.5L84.5 90.5L73 102L70 106L68.5 108.5L68 110L67.5 112.5L64 128L81.5 124L90.5 118.5L101.5 107.5L114 95L126 83L127 81.5L128 79V77L127.5 75L127 73.5L120.5 66.5L119 65.5L117.5 64.5L116 64H114.5H113L111.5 64.5H111ZM74 107.237L84.5 116L114 88.25L103 79L74 107.237Z" fill="#499CD9"/>
<path fill-rule="evenodd" clip-rule="evenodd" d="M110 64.5L108.5 65.5L103.5 70.5L95.5 78.5L83.5 90.5L72 102L69 106L67.5 108.5L67 110L66.5 112.5L63 128L80.5 124L89.5 118.5L100.5 107.5L113 95L125 83L126 81.5L127 79V77L126.5 75L126 73.5L119.5 66.5L118 65.5L116.5 64.5L115 64H113.5H112L110.5 64.5H110ZM73 107.237L83.5 116L113 88.25L102 79L73 107.237Z" fill="#499CD9"/>
</g>
<defs>
<clipPath id="clip0_1_3">
<rect width="128" height="128" fill="white"/>
</clipPath>
</defs>
</svg>
