<svg width="128" height="128" viewBox="0 0 128 128" fill="none" xmlns="http://www.w3.org/2000/svg">
<g clip-path="url(#clip0_3_2)">
<path opacity="0.943" fill-rule="evenodd" clip-rule="evenodd" d="M117.125 127.875C116.292 127.875 115.458 127.875 114.625 127.875C113.135 127.505 111.802 126.796 110.625 125.75C102.66 117.868 94.7847 109.91 87 101.875C84.9225 98.371 85.2975 95.1628 88.125 92.25C86.2083 90.3333 84.2917 88.4167 82.375 86.5C82.023 86.4213 81.6897 86.5045 81.375 86.75C71.081 95.2013 59.2477 98.9513 45.875 98C26.6375 95.7408 12.9292 85.8657 4.75 68.375C-1.25711 53.06 -0.257108 38.2267 7.75 23.875C19.0732 6.56845 35.115 -1.22322 55.875 0.499996C74.9522 3.4972 88.244 13.8722 95.75 31.625C102.069 50.5125 98.7773 67.4707 85.875 82.5C87.7535 84.4203 89.6703 86.2953 91.625 88.125C94.7565 85.4962 98.0898 85.2048 101.625 87.25C109.75 95.375 117.875 103.5 126 111.625C127.734 114.486 127.817 117.403 126.25 120.375C124.466 122.409 122.591 124.367 120.625 126.25C119.531 127.006 118.364 127.548 117.125 127.875ZM46.125 5.375C65.072 4.78285 79.2805 12.6162 88.75 28.875C95.544 43.1272 95.2108 57.2105 87.75 71.125C79.034 85.0498 66.409 92.3832 49.875 93.125C31.3582 92.1367 17.9832 83.3867 9.75 66.875C2.74842 48.882 5.6651 32.7152 18.5 18.375C26.1952 10.8401 35.4035 6.50675 46.125 5.375ZM49.375 62.375C50.0777 62.4565 50.7445 62.6647 51.375 63C50.8535 64.0095 50.02 64.343 48.875 64C48.7082 63.6667 48.5417 63.3332 48.375 63C48.7665 62.848 49.1 62.6395 49.375 62.375ZM96.375 91.125C97.08 91.062 97.7465 91.187 98.375 91.5C106.167 99.2917 113.958 107.083 121.75 114.875C122.25 115.708 122.25 116.542 121.75 117.375C120.125 119 118.5 120.625 116.875 122.25C115.867 122.51 114.95 122.344 114.125 121.75C106.326 114.035 98.618 106.243 91 98.375C90.8025 97.5915 90.8857 96.8415 91.25 96.125C92.9323 94.4008 94.6405 92.7342 96.375 91.125Z" fill="black"/>
<path opacity="0.949" fill-rule="evenodd" clip-rule="evenodd" d="M106.375 3.87499C108.051 3.56749 109.259 4.15081 110 5.62499C110.125 8.45709 110.167 11.2904 110.125 14.125C113.043 14.0834 115.96 14.125 118.875 14.25C121.208 15.9167 121.208 17.5833 118.875 19.25C115.96 19.375 113.043 19.4166 110.125 19.375C110.167 22.2928 110.125 25.2095 110 28.125C108.333 30.4582 106.667 30.4582 105 28.125C104.875 25.2095 104.833 22.2928 104.875 19.375C101.957 19.4166 99.0405 19.375 96.125 19.25C94.3045 18.2946 93.9295 16.9196 95 15.125C95.2257 14.8246 95.5172 14.6163 95.875 14.5C98.8595 14.1462 101.859 14.0212 104.875 14.125C104.833 11.2071 104.875 8.29046 105 5.37499C105.34 4.74434 105.798 4.24434 106.375 3.87499Z" fill="#77BB00"/>
<path opacity="0.946" fill-rule="evenodd" clip-rule="evenodd" d="M59.375 47.125C60.1295 47.0837 60.8795 47.1255 61.625 47.25C62.9167 48.375 64.2083 49.5 65.5 50.625C65.7545 51.4097 65.9628 52.2013 66.125 53C71.2595 54.2958 75.801 56.6707 79.75 60.125C80.8952 61.4158 81.6452 62.9158 82 64.625C82.5418 66.4167 83.0832 68.2083 83.625 70C83.2105 72.0803 81.9605 72.997 79.875 72.75C79.4055 72.3643 79.0305 71.906 78.75 71.375C78.0655 68.905 77.2322 66.4883 76.25 64.125C74.6578 62.4323 72.7827 61.1405 70.625 60.25C68.7372 59.468 66.8205 58.7595 64.875 58.125C63.9815 60.764 63.065 63.389 62.125 66C61.5903 66.351 61.007 66.5592 60.375 66.625C58.9538 66.2485 57.5788 65.7485 56.25 65.125C56.0833 65.625 55.9167 66.125 55.75 66.625C56.9108 72.4272 58.2025 78.219 59.625 84C59.4097 85.5485 58.5347 86.4235 57 86.625C56.104 86.4688 55.354 86.052 54.75 85.375C53.379 80.0578 52.0872 74.7245 50.875 69.375C50.2918 69.375 49.7082 69.375 49.125 69.375C47.9965 74.5557 46.7882 79.7225 45.5 84.875C45.055 85.9483 44.2635 86.4483 43.125 86.375C41.425 86.4257 40.5085 85.5925 40.375 83.875C41.9078 78.0788 43.1995 72.2455 44.25 66.375C44.1323 65.9385 43.9655 65.5218 43.75 65.125C42.0833 66.2395 40.2915 66.6145 38.375 66.25C37.9055 65.8643 37.5305 65.406 37.25 64.875C36.566 62.6147 35.8575 60.3647 35.125 58.125C31.68 59.175 28.43 60.6332 25.375 62.5C24.75 63.125 24.125 63.75 23.5 64.375C22.6996 66.693 21.9496 69.0262 21.25 71.375C19.6667 73.0417 18.0833 73.0417 16.5 71.375C16.3945 70.9112 16.2695 70.4527 16.125 70C16.8656 67.1618 17.7406 64.37 18.75 61.625C20.2168 59.659 22.0084 58.034 24.125 56.75C26.9918 55.191 29.9918 53.9827 33.125 53.125C32.946 51.9123 33.2793 50.8705 34.125 50C35.033 49.3425 35.8662 48.5925 36.625 47.75C37.5545 47.1755 38.5545 47.0088 39.625 47.25C42.9957 50.2455 46.329 53.2873 49.625 56.375C52.1367 53.946 54.6367 51.5295 57.125 49.125C55.5745 50.1923 53.9078 51.0673 52.125 51.75C49.0652 52.3505 46.232 51.7672 43.625 50C38.5693 46.6077 35.5278 41.8993 34.5 35.875C34.0902 32.6342 33.9237 29.3842 34 26.125C35.551 17.2402 40.801 12.3235 49.75 11.375C55.8923 11.5284 60.559 14.1951 63.75 19.375C64.6982 21.105 65.365 22.9384 65.75 24.875C66.4445 31.4028 65.2778 37.5693 62.25 43.375C61.3335 44.6652 60.3752 45.9152 59.375 47.125ZM48.375 16.875C44.0972 17.775 41.139 20.275 39.5 24.375C38.9835 28.0642 39.1503 31.7308 40 35.375C40.8913 39.6813 43.0998 43.1398 46.625 45.75C47.9648 46.7682 49.4648 47.1015 51.125 46.75C53.879 45.413 56.0872 43.4548 57.75 40.875C60.7878 35.2885 61.4542 29.4552 59.75 23.375C57.333 18.8527 53.5413 16.686 48.375 16.875ZM39.375 54.125C39.8827 56.238 40.5077 58.3212 41.25 60.375C42.3108 59.907 43.3525 59.407 44.375 58.875C42.861 57.1105 41.1945 55.5273 39.375 54.125ZM59.875 54.125C58.3073 55.5675 56.7655 57.0675 55.25 58.625C55.078 58.833 55.1197 58.9995 55.375 59.125C56.3518 59.5095 57.31 59.926 58.25 60.375C58.8558 58.4108 59.4808 56.4525 60.125 54.5C60.1075 54.3088 60.0243 54.1837 59.875 54.125ZM49.375 62.375C49.1 62.6395 48.7665 62.848 48.375 63C48.5417 63.3332 48.7083 63.6668 48.875 64C50.02 64.343 50.8535 64.0095 51.375 63C50.7445 62.6648 50.0778 62.4565 49.375 62.375Z" fill="black"/>
<path opacity="0.936" fill-rule="evenodd" clip-rule="evenodd" d="M64.125 70.125C66.8763 70.0833 69.6263 70.125 72.375 70.25C74.219 71.3168 74.594 72.7753 73.5 74.625C73.1453 74.865 72.7703 75.0733 72.375 75.25C69.625 75.4168 66.875 75.4168 64.125 75.25C61.826 73.532 61.826 71.8238 64.125 70.125Z" fill="black"/>
<path opacity="0.953" fill-rule="evenodd" clip-rule="evenodd" d="M2.625 100.875C10.0421 100.833 17.4588 100.875 24.875 101C26.5133 101.683 27.055 102.891 26.5 104.625C26.2083 105.25 25.75 105.708 25.125 106C17.5417 106.167 9.95833 106.167 2.375 106C0.693135 104.981 0.318135 103.606 1.25 101.875C1.62495 101.383 2.08329 101.05 2.625 100.875Z" fill="#F44336"/>
</g>
<defs>
<clipPath id="clip0_3_2">
<rect width="128" height="128" fill="white"/>
</clipPath>
</defs>
</svg>
