<svg width="128" height="128" viewBox="0 0 128 128" fill="none" xmlns="http://www.w3.org/2000/svg">
<g clip-path="url(#clip0_1_11)">
<path d="M8.766 119.203C8.268 118.699 7.991 118.004 7.998 117.297C8.021 115.953 8.391 103.988 14.705 97.672C17.617 94.758 23.72 91.602 32.694 87.111C42.272 82.326 47.582 79.472 50.03 77.158L55.426 72.056L50.737 66.296C43.352 57.224 39.114 47.206 39.114 38.814C39.114 32.341 39.114 25.005 42.177 18.937C45.846 11.68 53.188 8 64.009 8C74.826 8 82.172 11.68 85.836 18.936C88.899 25.006 88.899 32.342 88.899 38.815C88.899 47.206 84.661 57.223 77.274 66.297L75.889 68H86.024C92.935 58.439 96.9 48.043 96.9 38.814C96.9 31.814 96.9 23.101 92.98 15.332C89.446 8.338 81.555 0 64.009 0C46.462 0 38.569 8.338 35.038 15.332C31.115 23.102 31.115 31.812 31.115 38.814C31.115 49.132 36.041 60.914 44.534 71.347C42.506 73.265 34.143 77.445 29.118 79.954C19.151 84.938 12.828 88.233 9.048 92.015C0.675998 100.386 0.0429973 114.437 0.00199733 117.171C-0.0430027 120.023 1.059 122.78 3.065 124.819C5.07 126.85 7.809 127.999 10.666 127.999H67.98V119.999H10.666C9.956 120 9.263 119.711 8.766 119.203Z" fill="black"/>
<path d="M115.393 96L123.982 87.4103C126.571 84.8217 128 81.3749 128 77.7143C128 74.0537 126.571 70.6069 123.981 68.0183C121.393 65.4286 117.946 64 114.285 64C110.624 64 107.177 65.4286 104.589 68.0183L95.9994 76.608L87.4092 68.0183C84.8204 65.4286 81.3747 64 77.7142 64C74.0537 64 70.6069 65.4286 68.0181 68.0183C65.4292 70.608 64 74.0537 64 77.7143C64 81.3749 65.4281 84.8217 68.0181 87.4103L76.6083 96L68.0181 104.59C65.4281 107.179 64 110.625 64 114.286C64 117.946 65.4281 121.393 68.0181 123.982C70.608 126.57 74.0537 128 77.7142 128C81.3747 128 84.8204 126.571 87.4092 123.982L95.9994 115.392L104.589 123.982C107.178 126.571 110.624 128 114.285 128C117.946 128 121.393 126.571 123.981 123.982C126.571 121.392 128 117.946 128 114.286C128 110.625 126.571 107.178 123.981 104.59L115.393 96ZM117.517 117.518C116.624 118.41 115.455 118.857 114.285 118.857C113.116 118.857 111.946 118.41 111.053 117.518L95.9994 102.464L80.9463 117.518C80.054 118.41 78.8829 118.857 77.7142 118.857C76.5455 118.857 75.3744 118.41 74.4822 117.518C72.6965 115.731 72.6965 112.839 74.4822 111.054L89.5353 96L74.4822 80.9463C72.6965 79.16 72.6965 76.2674 74.4822 74.4823C75.3756 73.5897 76.5455 73.1429 77.7142 73.1429C78.8829 73.1429 80.054 73.5897 80.9463 74.4823L95.9994 89.536L111.053 74.4823C111.946 73.5897 113.116 73.1429 114.285 73.1429C115.455 73.1429 116.624 73.5897 117.517 74.4823C119.302 76.2686 119.302 79.1611 117.517 80.9463L102.464 96L117.517 111.054C119.304 112.839 119.304 115.733 117.517 117.518Z" fill="#F44336"/>
</g>
<defs>
<clipPath id="clip0_1_11">
<rect width="128" height="128" fill="white"/>
</clipPath>
</defs>
</svg>
