<svg width="32" height="32" viewBox="0 0 32 32" fill="none" xmlns="http://www.w3.org/2000/svg">
<g clip-path="url(#clip0_20_2)">
<path d="M22.5 9C21.1775 8.99847 19.8785 9.34889 18.7362 10.0153C17.5939 10.6817 16.6495 11.64 16 12.792V8H14V16H22V14H17.6167C18.062 13.1312 18.7308 12.3967 19.5542 11.8721C20.3777 11.3476 21.326 11.0519 22.3016 11.0156C23.2773 10.9793 24.245 11.2036 25.1051 11.6655C25.9653 12.1273 26.6868 12.8101 27.1955 13.6434C27.7042 14.4767 27.9816 15.4305 27.9992 16.4067C28.0169 17.3829 27.7741 18.3461 27.2958 19.1972C26.8175 20.0484 26.1211 20.7567 25.2782 21.2493C24.4353 21.742 23.4763 22.0011 22.5 22H22V24H22.5C24.4891 24 26.3968 23.2098 27.8033 21.8033C29.2098 20.3968 30 18.4891 30 16.5C30 14.5109 29.2098 12.6032 27.8033 11.1967C26.3968 9.79018 24.4891 9 22.5 9Z" fill="#FCFCFC"/>
<path d="M26 6H4V9.171L11.4142 16.5853L12 17.171V26H16V24H18V26C18 26.5304 17.7893 27.0391 17.4142 27.4142C17.0391 27.7893 16.5304 28 16 28H12C11.4696 28 10.9609 27.7893 10.5858 27.4142C10.2107 27.0391 10 26.5304 10 26V18L2.5858 10.5853C2.40007 10.3996 2.25274 10.1791 2.15223 9.93641C2.05172 9.69375 1.99999 9.43366 2 9.171V6C2 5.46957 2.21071 4.96086 2.58579 4.58579C2.96086 4.21071 3.46957 4 4 4H26V6Z" fill="#FCFCFC"/>
</g>
<defs>
<clipPath id="clip0_20_2">
<rect width="32" height="32" fill="white"/>
</clipPath>
</defs>
</svg>
