<?xml version="1.0" encoding="utf-8"?><svg xmlns="http://www.w3.org/2000/svg" xmlns:xlink="http://www.w3.org/1999/xlink"><symbol shape-rendering="geometricPrecision" text-rendering="geometricPrecision" image-rendering="optimizeQuality" fill-rule="evenodd" clip-rule="evenodd" viewBox="0 0 512 512" id="user_delete-icon" xmlns="http://www.w3.org/2000/svg"><path d="M306.5 511.5H9.5a592.612 592.612 0 014.5-72c1.886-19.958 11.053-35.458 27.5-46.5a145.08 145.08 0 0120-11 2808.84 2808.84 0 0170-24c17.651-6.235 33.484-15.402 47.5-27.5 8.451-10.131 12.118-21.798 11-35a284.497 284.497 0 01-29-40c-20.138-14.234-32.804-33.567-38-58-1.357-10.885.976-20.885 7-30l1-40c1.691-25.073 9.358-48.073 23-69A62.99 62.99 0 01169.5 46c30.289-17.985 62.955-28.985 98-33 16.721-1.822 33.055-.155 49 5 15.007 6.504 25.34 17.337 31 32.5 20.688 3.178 34.188 14.845 40.5 35a114.465 114.465 0 015 24 400.05 400.05 0 010 40 140.41 140.41 0 01-2.5 17.5c8.027 11.322 10.027 23.656 6 37-6.332 21.866-18.665 39.366-37 52.5-9.73 18.118-21.897 34.452-36.5 49-.616 7.152 1.384 13.485 6 19a148.791 148.791 0 0016 13c-1.285 4.913-3.452 9.58-6.5 14-.865 1.083-1.865 1.249-3 .5-16.627-8.281-26.794-21.447-30.5-39.5-2.429-9.987.571-17.653 9-23a217.526 217.526 0 0032-46c19.353-12.363 31.186-29.863 35.5-52.5-1.091-6.681-3.924-12.514-8.5-17.5l-.5-3.5c3.981-20.717 4.815-41.55 2.5-62.5-1.454-11.368-5.454-21.702-12-31-8.051-7.228-17.551-10.561-28.5-10-3.69-18.523-14.69-30.023-33-34.5-16.375-3.152-32.709-2.819-49 1-29.663 5.883-56.996 17.216-82 34-10.512 14.512-17.345 30.679-20.5 48.5a278.742 278.742 0 00-1.5 56 4745.822 4745.822 0 00-6.5 11c-2.224 8.204-1.557 16.204 2 24 5.996 15.994 16.33 28.327 31 37a205.055 205.055 0 0032 44c3.999 32.838-8.501 57.005-37.5 72.5a429.204 429.204 0 01-25 12 4991.308 4991.308 0 01-75 26c-11.657 5.076-21.824 12.243-30.5 21.5a54.465 54.465 0 00-7 19 422.032 422.032 0 00-4.5 56h279v17z" opacity=".976"/><path d="M421.5 511.5h-26c-45.676-9.178-72.176-36.845-79.5-83-2.123-46.948 18.377-79.448 61.5-97.5 41.451-11.844 76.284-1.677 104.5 30.5 26 38.333 26 76.667 0 115-15.898 19.069-36.065 30.736-60.5 35zm-18-168c34.782.129 59.615 15.796 74.5 47 12.409 38.438 2.242 69.272-30.5 92.5-35.408 18.205-67.242 13.372-95.5-14.5-24.245-32.415-24.578-65.082-1-98 14.083-15.791 31.583-24.791 52.5-27z" opacity=".973"/><path d="M384.5 382.5c7.979 7.645 15.979 15.312 24 23a762.454 762.454 0 0023.5-23l12 12c.667.667.667 1.333 0 2L421.5 419a762.454 762.454 0 0123 23.5 178.482 178.482 0 01-11 11.5c-1 .667-2 .667-3 0a667.23 667.23 0 00-22-21.5 726.551 726.551 0 01-23.5 22c-5.182-3.504-9.182-7.838-12-13l22.5-22.5a762.454 762.454 0 01-23-23.5c4.022-4.354 8.022-8.687 12-13z" opacity=".984"/></symbol><symbol shape-rendering="geometricPrecision" text-rendering="geometricPrecision" image-rendering="optimizeQuality" fill-rule="evenodd" clip-rule="evenodd" viewBox="0 0 512 512" id="user_edit-icon" xmlns="http://www.w3.org/2000/svg"><path d="M309.5 511.5h-297a592.608 592.608 0 014.5-72c1.886-19.958 11.053-35.458 27.5-46.5a145.08 145.08 0 0120-11 2808.84 2808.84 0 0170-24c17.651-6.235 33.484-15.402 47.5-27.5 8.451-10.131 12.118-21.798 11-35a284.497 284.497 0 01-29-40c-20.138-14.234-32.804-33.567-38-58-1.357-10.885.976-20.885 7-30l1-40c1.691-25.073 9.358-48.073 23-69A62.99 62.99 0 01172.5 46c30.289-17.985 62.955-28.985 98-33 16.721-1.822 33.055-.155 49 5 15.007 6.504 25.34 17.337 31 32.5 20.688 3.178 34.188 14.845 40.5 35a114.465 114.465 0 015 24 400.05 400.05 0 010 40 140.41 140.41 0 01-2.5 17.5c8.027 11.322 10.027 23.656 6 37-6.332 21.866-18.665 39.366-37 52.5-9.73 18.118-21.897 34.452-36.5 49-.616 7.152 1.384 13.485 6 19a148.791 148.791 0 0016 13c-1.285 4.913-3.452 9.58-6.5 14-.865 1.083-1.865 1.249-3 .5-16.627-8.281-26.794-21.447-30.5-39.5-2.429-9.987.571-17.653 9-23a217.526 217.526 0 0032-46c19.353-12.363 31.186-29.863 35.5-52.5-1.091-6.681-3.924-12.514-8.5-17.5l-.5-3.5c3.981-20.717 4.815-41.55 2.5-62.5-1.454-11.368-5.454-21.702-12-31-8.051-7.228-17.551-10.561-28.5-10-3.69-18.523-14.69-30.023-33-34.5-16.375-3.152-32.709-2.819-49 1-29.663 5.883-56.996 17.216-82 34-10.512 14.512-17.345 30.679-20.5 48.5a278.742 278.742 0 00-1.5 56 4745.822 4745.822 0 00-6.5 11c-2.224 8.204-1.557 16.204 2 24 5.996 15.994 16.33 28.327 31 37a205.055 205.055 0 0032 44c3.999 32.838-8.501 57.005-37.5 72.5a429.204 429.204 0 01-25 12 4991.308 4991.308 0 01-75 26c-11.657 5.076-21.824 12.243-30.5 21.5a54.465 54.465 0 00-7 19 422.032 422.032 0 00-4.5 56h279v17zm128-184c3.808-.337 7.474.163 11 1.5l46.5 46.5c2.704 3.499 3.037 7.166 1 11A3643.66 3643.66 0 01394.5 488a448.095 448.095 0 01-61 6c-3.266-2.536-4.6-5.869-4-10a1136.556 1136.556 0 016.5-54.5 14626.852 14626.852 0 00101.5-102zm4 21a1607.773 1607.773 0 0134 33.5 307.286 307.286 0 01-15 14.5 770.987 770.987 0 01-33-33c4.688-5.02 9.355-10.02 14-15zm-28 28a1607.773 1607.773 0 0134 33.5L390 467.5 356.5 434a4621.909 4621.909 0 0057-57.5zm-63 77a548.441 548.441 0 0120 19.5 548.412 548.412 0 01-21.5 3.5 141.36 141.36 0 011.5-23z" opacity=".976"/></symbol></svg>