<?xml version="1.0" encoding="utf-8"?><svg xmlns="http://www.w3.org/2000/svg" xmlns:xlink="http://www.w3.org/1999/xlink"><symbol viewBox="0 0 128 128" id="edit-document-icon" xmlns="http://www.w3.org/2000/svg"><path d="M8 112V16c0-4.414 3.594-8 8-8h80c4.414 0 8 3.586 8 8v47.031l8-8V16c0-8.836-7.164-16-16-16H16C7.164 0 0 7.164 0 16v96c0 8.836 7.164 16 16 16h44v-8H16c-4.406 0-8-3.586-8-8zm80-88H24v8h64v-8zm0 16H24v8h64v-8zm0 16H24v8h64v-8zM24 80h32v-8H24v8zm101.656-8L120 66.344c-1.563-1.563-3.609-2.344-5.656-2.344s-4.094.781-5.656 2.344l-34.344 34.344C72.781 102.25 68 108.293 68 110.34L64 128l17.656-4s8.094-4.781 9.656-6.344l34.344-34.344a7.996 7.996 0 000-11.312zm-37.164 42.82c-.453.43-2.02 1.488-3.934 2.707l-10.363-10.363c1.063-1.457 2.246-2.922 2.977-3.648l25.859-25.859 11.313 11.313-25.852 25.85z"/></symbol><symbol viewBox="0 0 128 128" id="edit-user-icon" xmlns="http://www.w3.org/2000/svg"><path d="M8.766 119.203a2.688 2.688 0 01-.768-1.906c.023-1.344.393-13.309 6.707-19.625 2.913-2.914 9.013-6.07 17.986-10.561 9.576-4.785 14.886-7.639 17.333-9.953l5.396-5.102-4.688-5.76c-7.384-9.072-11.621-19.09-11.621-27.482 0-6.473 0-13.809 3.063-19.877C45.84 11.68 53.181 8 64 8c10.816 0 18.161 3.68 21.824 10.936 3.063 6.07 3.063 13.406 3.063 19.879 0 8.391-4.237 18.408-11.624 27.482l-4.688 5.762 5.4 5.104c1.461 1.381 3.979 2.969 7.798 5.039l5.911-5.91c-3.615-1.898-7.021-3.814-8.214-4.943 8.491-10.434 13.416-22.217 13.416-32.533 0-7 0-15.713-3.918-23.482C89.435 8.338 81.544 0 64 0 46.454 0 38.563 8.338 35.033 15.332c-3.923 7.77-3.923 16.48-3.923 23.482 0 10.318 4.925 22.1 13.417 32.533-2.028 1.918-10.389 6.098-15.413 8.607-9.965 4.984-16.287 8.279-20.066 12.061C.677 100.386.044 114.437.001 117.171a10.679 10.679 0 003.065 7.648 10.68 10.68 0 007.599 3.18h45.304v-8H10.665a2.67 2.67 0 01-1.899-.796zm112.458-24.445l-5.747 5.746c3.368 5.316 4.458 12.703 4.521 16.789a2.673 2.673 0 01-.762 1.91 2.65 2.65 0 01-1.903.797H95.977l-8.001 8h29.356c2.86 0 5.596-1.148 7.6-3.18a10.693 10.693 0 003.067-7.652c-.039-2.453-.606-14.008-6.775-22.41zm4.415-11.445a7.996 7.996 0 000-11.313l-5.657-5.656A7.975 7.975 0 00114.325 64a7.971 7.971 0 00-5.657 2.344l-34.353 34.344c-1.561 1.563-6.341 7.605-6.343 9.652L63.971 128l17.659-4s8.096-4.781 9.658-6.344l34.351-34.343zm-41.106 34.214l-10.365-10.363c1.063-1.457 2.246-2.922 2.975-3.648l25.867-25.859 11.314 11.313-25.856 25.85c-.453.43-2.021 1.489-3.935 2.707z"/></symbol><symbol viewBox="0 0 128 128" id="remove-user-icon" xmlns="http://www.w3.org/2000/svg"><path d="M8.766 119.203a2.688 2.688 0 01-.768-1.906c.023-1.344.393-13.309 6.707-19.625 2.912-2.914 9.015-6.07 17.989-10.561 9.578-4.785 14.888-7.639 17.336-9.953l5.396-5.102-4.689-5.76c-7.385-9.072-11.623-19.09-11.623-27.482 0-6.473 0-13.809 3.063-19.877C45.846 11.68 53.188 8 64.009 8c10.817 0 18.163 3.68 21.827 10.936 3.063 6.07 3.063 13.406 3.063 19.879 0 8.391-4.238 18.408-11.625 27.482L75.889 68h10.135C92.935 58.439 96.9 48.043 96.9 38.814c0-7 0-15.713-3.92-23.482C89.446 8.338 81.555 0 64.009 0c-17.547 0-25.44 8.338-28.971 15.332-3.923 7.77-3.923 16.48-3.923 23.482 0 10.318 4.926 22.1 13.419 32.533-2.028 1.918-10.391 6.098-15.416 8.607-9.967 4.984-16.29 8.279-20.07 12.061C.676 100.386.043 114.437.002 117.171a10.668 10.668 0 003.063 7.648 10.687 10.687 0 007.601 3.18H67.98v-8H10.666a2.667 2.667 0 01-1.9-.796zM116.965 100l7.518-7.516C126.749 90.219 128 87.203 128 84s-1.251-6.219-3.518-8.484A11.927 11.927 0 00115.995 72a11.93 11.93 0 00-8.487 3.516l-7.518 7.516-7.519-7.516C90.205 73.25 87.189 72 83.985 72s-6.221 1.25-8.487 3.516-3.517 5.281-3.517 8.484 1.25 6.219 3.517 8.484L83.017 100l-7.519 7.516c-2.267 2.266-3.517 5.281-3.517 8.484s1.25 6.219 3.517 8.484S80.781 128 83.985 128s6.22-1.25 8.486-3.516l7.519-7.516 7.518 7.516a11.932 11.932 0 008.487 3.516c3.205 0 6.222-1.25 8.487-3.516 2.267-2.266 3.518-5.281 3.518-8.484s-1.251-6.219-3.518-8.484L116.965 100zm1.859 18.828a3.989 3.989 0 01-2.829 1.172 3.992 3.992 0 01-2.829-1.172L99.99 105.656l-13.176 13.172c-.781.781-1.806 1.172-2.829 1.172s-2.048-.391-2.829-1.172a3.997 3.997 0 010-5.656L94.332 100 81.156 86.828a3.997 3.997 0 010-5.656c.782-.781 1.806-1.172 2.829-1.172s2.048.391 2.829 1.172L99.99 94.344l13.176-13.172A3.992 3.992 0 01115.995 80c1.024 0 2.048.391 2.829 1.172a3.997 3.997 0 010 5.656L105.648 100l13.176 13.172a3.996 3.996 0 010 5.656z"/></symbol></svg>