<?xml version="1.0" encoding="UTF-8"?>
<!DOCTYPE svg PUBLIC "-//W3C//DTD SVG 1.1//EN" "http://www.w3.org/Graphics/SVG/1.1/DTD/svg11.dtd">
<svg xmlns="http://www.w3.org/2000/svg" version="1.1" width="512px" height="512px" style="shape-rendering:geometricPrecision; text-rendering:geometricPrecision; image-rendering:optimizeQuality; fill-rule:evenodd; clip-rule:evenodd" xmlns:xlink="http://www.w3.org/1999/xlink">
<g><path style="opacity:0.976" fill="#3d3d3d" d="M 306.5,511.5 C 207.5,511.5 108.5,511.5 9.5,511.5C 9.53802,487.406 11.038,463.406 14,439.5C 15.8862,419.542 25.0528,404.042 41.5,393C 47.8455,388.826 54.5122,385.159 61.5,382C 84.7242,373.694 108.057,365.694 131.5,358C 149.151,351.765 164.984,342.598 179,330.5C 187.451,320.369 191.118,308.702 190,295.5C 179.172,283.006 169.506,269.673 161,255.5C 140.862,241.266 128.196,221.933 123,197.5C 121.643,186.615 123.976,176.615 130,167.5C 130.333,154.167 130.667,140.833 131,127.5C 132.691,102.427 140.358,79.4275 154,58.5C 158.526,53.4936 163.693,49.3269 169.5,46C 199.789,28.0148 232.455,17.0148 267.5,13C 284.221,11.1785 300.555,12.8451 316.5,18C 331.507,24.5036 341.84,35.337 347.5,50.5C 368.188,53.6785 381.688,65.3451 388,85.5C 390.525,93.3177 392.192,101.318 393,109.5C 393.667,122.833 393.667,136.167 393,149.5C 392.528,155.432 391.694,161.265 390.5,167C 398.527,178.322 400.527,190.656 396.5,204C 390.168,225.866 377.835,243.366 359.5,256.5C 349.77,274.618 337.603,290.952 323,305.5C 322.384,312.652 324.384,318.985 329,324.5C 334.043,329.212 339.377,333.545 345,337.5C 343.715,342.413 341.548,347.08 338.5,351.5C 337.635,352.583 336.635,352.749 335.5,352C 318.873,343.719 308.706,330.553 305,312.5C 302.571,302.513 305.571,294.847 314,289.5C 326.638,275.563 337.305,260.23 346,243.5C 365.353,231.137 377.186,213.637 381.5,191C 380.409,184.319 377.576,178.486 373,173.5C 372.833,172.333 372.667,171.167 372.5,170C 376.481,149.283 377.315,128.45 375,107.5C 373.546,96.1316 369.546,85.7983 363,76.5C 354.949,69.272 345.449,65.9387 334.5,66.5C 330.81,47.9771 319.81,36.4771 301.5,32C 285.125,28.8478 268.791,29.1811 252.5,33C 222.837,38.8829 195.504,50.2162 170.5,67C 159.988,81.5124 153.155,97.679 150,115.5C 147.619,134.134 147.119,152.801 148.5,171.5C 146.349,175.129 144.182,178.796 142,182.5C 139.776,190.704 140.443,198.704 144,206.5C 149.996,222.494 160.33,234.827 175,243.5C 183.709,259.584 194.376,274.25 207,287.5C 210.999,320.338 198.499,344.505 169.5,360C 161.288,364.273 152.955,368.273 144.5,372C 119.564,380.867 94.564,389.534 69.5,398C 57.8431,403.076 47.6764,410.243 39,419.5C 35.4798,425.394 33.1464,431.727 32,438.5C 29.2563,457.065 27.7563,475.732 27.5,494.5C 120.5,494.5 213.5,494.5 306.5,494.5C 306.5,500.167 306.5,505.833 306.5,511.5 Z"/></g>
<g><path style="opacity:0.973" fill="#3d3d3d" d="M 421.5,511.5 C 412.833,511.5 404.167,511.5 395.5,511.5C 349.824,502.322 323.324,474.655 316,428.5C 313.877,381.552 334.377,349.052 377.5,331C 418.951,319.156 453.784,329.323 482,361.5C 508,399.833 508,438.167 482,476.5C 466.102,495.569 445.935,507.236 421.5,511.5 Z M 403.5,343.5 C 438.282,343.629 463.115,359.296 478,390.5C 490.409,428.938 480.242,459.772 447.5,483C 412.092,501.205 380.258,496.372 352,468.5C 327.755,436.085 327.422,403.418 351,370.5C 365.083,354.709 382.583,345.709 403.5,343.5 Z"/></g>
<g><path style="opacity:0.984" fill="#3d3d3d" d="M 384.5,382.5 C 392.479,390.145 400.479,397.812 408.5,405.5C 416.486,398.015 424.319,390.348 432,382.5C 436,386.5 440,390.5 444,394.5C 444.667,395.167 444.667,395.833 444,396.5C 436.5,404 429,411.5 421.5,419C 429.348,426.681 437.015,434.514 444.5,442.5C 441.016,446.485 437.349,450.318 433.5,454C 432.5,454.667 431.5,454.667 430.5,454C 423.319,446.652 415.986,439.485 408.5,432.5C 400.805,440.029 392.972,447.363 385,454.5C 379.818,450.996 375.818,446.662 373,441.5C 380.5,434 388,426.5 395.5,419C 387.652,411.319 379.985,403.486 372.5,395.5C 376.522,391.146 380.522,386.813 384.5,382.5 Z"/></g>
</svg>
