<?xml version="1.0" encoding="UTF-8"?>
<!DOCTYPE svg PUBLIC "-//W3C//DTD SVG 1.1//EN" "http://www.w3.org/Graphics/SVG/1.1/DTD/svg11.dtd">
<svg xmlns="http://www.w3.org/2000/svg" version="1.1" width="512px" height="512px" style="shape-rendering:geometricPrecision; text-rendering:geometricPrecision; image-rendering:optimizeQuality; fill-rule:evenodd; clip-rule:evenodd" xmlns:xlink="http://www.w3.org/1999/xlink">
<g><path style="opacity:0.976" fill="#3d3d3d" d="M 309.5,511.5 C 210.5,511.5 111.5,511.5 12.5,511.5C 12.538,487.406 14.038,463.406 17,439.5C 18.8862,419.542 28.0528,404.042 44.5,393C 50.8455,388.826 57.5122,385.159 64.5,382C 87.7242,373.694 111.057,365.694 134.5,358C 152.151,351.765 167.984,342.598 182,330.5C 190.451,320.369 194.118,308.702 193,295.5C 182.172,283.006 172.506,269.673 164,255.5C 143.862,241.266 131.196,221.933 126,197.5C 124.643,186.615 126.976,176.615 133,167.5C 133.333,154.167 133.667,140.833 134,127.5C 135.691,102.427 143.358,79.4275 157,58.5C 161.526,53.4936 166.693,49.3269 172.5,46C 202.789,28.0148 235.455,17.0148 270.5,13C 287.221,11.1785 303.555,12.8451 319.5,18C 334.507,24.5036 344.84,35.337 350.5,50.5C 371.188,53.6785 384.688,65.3451 391,85.5C 393.525,93.3177 395.192,101.318 396,109.5C 396.667,122.833 396.667,136.167 396,149.5C 395.528,155.432 394.694,161.265 393.5,167C 401.527,178.322 403.527,190.656 399.5,204C 393.168,225.866 380.835,243.366 362.5,256.5C 352.77,274.618 340.603,290.952 326,305.5C 325.384,312.652 327.384,318.985 332,324.5C 337.043,329.212 342.377,333.545 348,337.5C 346.715,342.413 344.548,347.08 341.5,351.5C 340.635,352.583 339.635,352.749 338.5,352C 321.873,343.719 311.706,330.553 308,312.5C 305.571,302.513 308.571,294.847 317,289.5C 329.638,275.563 340.305,260.23 349,243.5C 368.353,231.137 380.186,213.637 384.5,191C 383.409,184.319 380.576,178.486 376,173.5C 375.833,172.333 375.667,171.167 375.5,170C 379.481,149.283 380.315,128.45 378,107.5C 376.546,96.1316 372.546,85.7983 366,76.5C 357.949,69.272 348.449,65.9387 337.5,66.5C 333.81,47.9771 322.81,36.4771 304.5,32C 288.125,28.8478 271.791,29.1811 255.5,33C 225.837,38.8829 198.504,50.2162 173.5,67C 162.988,81.5124 156.155,97.679 153,115.5C 150.619,134.134 150.119,152.801 151.5,171.5C 149.349,175.129 147.182,178.796 145,182.5C 142.776,190.704 143.443,198.704 147,206.5C 152.996,222.494 163.33,234.827 178,243.5C 186.709,259.584 197.376,274.25 210,287.5C 213.999,320.338 201.499,344.505 172.5,360C 164.288,364.273 155.955,368.273 147.5,372C 122.564,380.867 97.564,389.534 72.5,398C 60.8431,403.076 50.6764,410.243 42,419.5C 38.4798,425.394 36.1464,431.727 35,438.5C 32.2563,457.065 30.7563,475.732 30.5,494.5C 123.5,494.5 216.5,494.5 309.5,494.5C 309.5,500.167 309.5,505.833 309.5,511.5 Z"/></g>
<g><path style="opacity:0.976" fill="#3d3d3d" d="M 437.5,327.5 C 441.308,327.163 444.974,327.663 448.5,329C 464,344.5 479.5,360 495,375.5C 497.704,378.999 498.037,382.666 496,386.5C 462.833,421 429,454.833 394.5,488C 374.297,491.393 353.963,493.393 333.5,494C 330.234,491.464 328.9,488.131 329.5,484C 331.229,465.771 333.396,447.604 336,429.5C 370.035,395.632 403.868,361.632 437.5,327.5 Z M 441.5,348.5 C 452.965,359.465 464.298,370.631 475.5,382C 470.652,387.015 465.652,391.848 460.5,396.5C 449.167,385.833 438.167,374.833 427.5,363.5C 432.188,358.48 436.855,353.48 441.5,348.5 Z M 413.5,376.5 C 424.965,387.465 436.298,398.631 447.5,410C 428.333,429.167 409.167,448.333 390,467.5C 378.833,456.333 367.667,445.167 356.5,434C 375.702,414.965 394.702,395.799 413.5,376.5 Z M 350.5,453.5 C 357.298,459.797 363.965,466.297 370.5,473C 363.325,474.314 356.158,475.481 349,476.5C 348.873,468.807 349.373,461.14 350.5,453.5 Z"/></g>
</svg>
